<svg width="5" height="9" viewBox="0 0 5 9" fill="none" xmlns="http://www.w3.org/2000/svg">
<path fill-rule="evenodd" clip-rule="evenodd" d="M4.80325 0.739606C4.70763 0.644099 4.578 0.590454 4.44285 0.590454C4.3077 0.590454 4.17808 0.644099 4.08245 0.739606L0.682455 4.13961C0.586948 4.23523 0.533303 4.36485 0.533303 4.50001C0.533303 4.63516 0.586948 4.76478 0.682455 4.8604L4.08245 8.26041C4.12914 8.31051 4.18545 8.3507 4.24801 8.37858C4.31057 8.40645 4.3781 8.42144 4.44658 8.42265C4.51506 8.42386 4.58308 8.41126 4.64658 8.38561C4.71008 8.35996 4.76777 8.32178 4.8162 8.27335C4.86463 8.22492 4.90281 8.16724 4.92846 8.10373C4.95411 8.04023 4.96671 7.97221 4.9655 7.90373C4.96429 7.83525 4.9493 7.76772 4.92143 7.70516C4.89355 7.6426 4.85336 7.5863 4.80325 7.53961L1.76365 4.50001L4.80325 1.46041C4.89876 1.36478 4.95241 1.23516 4.95241 1.10001C4.95241 0.964855 4.89876 0.835231 4.80325 0.739606Z" fill="#393939"/>
</svg>
