<svg width="24" height="24" viewBox="0 0 24 24" fill="none" xmlns="http://www.w3.org/2000/svg">
<path d="M20.7938 16.4944C20.2735 15.5981 19.5001 13.0622 19.5001 9.75C19.5001 7.76088 18.7099 5.85322 17.3034 4.4467C15.8969 3.04018 13.9892 2.25 12.0001 2.25C10.011 2.25 8.1033 3.04018 6.69677 4.4467C5.29025 5.85322 4.50007 7.76088 4.50007 9.75C4.50007 13.0631 3.7257 15.5981 3.20539 16.4944C3.07251 16.7222 3.00207 16.9811 3.00117 17.2449C3.00026 17.5086 3.06892 17.768 3.20023 17.9967C3.33153 18.2255 3.52084 18.4156 3.74905 18.5478C3.97726 18.6801 4.23631 18.7498 4.50007 18.75H8.32601C8.49905 19.5967 8.95922 20.3577 9.6287 20.9042C10.2982 21.4507 11.1359 21.7492 12.0001 21.7492C12.8643 21.7492 13.702 21.4507 14.3714 20.9042C15.0409 20.3577 15.5011 19.5967 15.6741 18.75H19.5001C19.7638 18.7496 20.0227 18.6798 20.2508 18.5475C20.4789 18.4151 20.668 18.225 20.7992 17.9963C20.9304 17.7676 20.999 17.5083 20.998 17.2446C20.9971 16.9809 20.9267 16.7222 20.7938 16.4944ZM12.0001 20.25C11.5349 20.2499 11.0812 20.1055 10.7014 19.8369C10.3217 19.5683 10.0345 19.1886 9.87945 18.75H14.1207C13.9656 19.1886 13.6785 19.5683 13.2987 19.8369C12.9189 20.1055 12.4652 20.2499 12.0001 20.25ZM4.50007 17.25C5.22195 16.0087 6.00007 13.1325 6.00007 9.75C6.00007 8.1587 6.63221 6.63258 7.75743 5.50736C8.88265 4.38214 10.4088 3.75 12.0001 3.75C13.5914 3.75 15.1175 4.38214 16.2427 5.50736C17.3679 6.63258 18.0001 8.1587 18.0001 9.75C18.0001 13.1297 18.7763 16.0059 19.5001 17.25H4.50007Z" fill="white"/>
</svg>
