<svg width="13" height="11" viewBox="0 0 13 11" fill="none" xmlns="http://www.w3.org/2000/svg">
<mask id="mask0_128_178" style="mask-type:alpha" maskUnits="userSpaceOnUse" x="0" y="0" width="11" height="11">
<path fill-rule="evenodd" clip-rule="evenodd" d="M5.22487 6.20905L9.23191 10.2161C9.36551 10.3451 9.54443 10.4165 9.73015 10.4149C9.91588 10.4133 10.0935 10.3388 10.2249 10.2075C10.3562 10.0761 10.4307 9.89847 10.4323 9.71275C10.4339 9.52703 10.3625 9.3481 10.2335 9.21451L6.22645 5.20746L10.2335 1.20042C10.3625 1.06683 10.4339 0.887901 10.4323 0.702178C10.4307 0.516456 10.3562 0.338797 10.2249 0.207466C10.0935 0.0761355 9.91588 0.00164066 9.73015 2.67769e-05C9.54443 -0.0015871 9.36551 0.0698089 9.23191 0.198838L5.22487 4.20588L1.21783 0.198838C1.08363 0.0729984 0.905747 0.00430476 0.721805 0.00729165C0.537863 0.0102785 0.362299 0.0847118 0.232261 0.214842C0.102223 0.344971 0.0279139 0.520588 0.0250571 0.704532C0.0222003 0.888476 0.0910199 1.06632 0.216954 1.20042L4.22329 5.20746L0.216246 9.21451C0.148593 9.27985 0.0946304 9.35801 0.0575074 9.44443C0.0203843 9.53085 0.000844031 9.62379 2.67446e-05 9.71785C-0.000790542 9.8119 0.0171313 9.90517 0.052747 9.99222C0.0883626 10.0793 0.140959 10.1584 0.207466 10.2249C0.273973 10.2914 0.35306 10.344 0.440112 10.3796C0.527163 10.4152 0.620436 10.4331 0.714488 10.4323C0.80854 10.4315 0.901488 10.412 0.987907 10.3748C1.07433 10.3377 1.15249 10.2837 1.21783 10.2161L5.22487 6.20905Z" fill="black"/>
</mask>
<g mask="url(#mask0_128_178)">
<path fill-rule="evenodd" clip-rule="evenodd" d="M5.22487 6.20905L9.23191 10.2161C9.36551 10.3451 9.54443 10.4165 9.73015 10.4149C9.91588 10.4133 10.0935 10.3388 10.2249 10.2075C10.3562 10.0761 10.4307 9.89847 10.4323 9.71275C10.4339 9.52703 10.3625 9.3481 10.2335 9.21451L6.22645 5.20746L10.2335 1.20042C10.3625 1.06683 10.4339 0.887901 10.4323 0.702178C10.4307 0.516456 10.3562 0.338797 10.2249 0.207466C10.0935 0.0761355 9.91588 0.00164066 9.73015 2.67769e-05C9.54443 -0.0015871 9.36551 0.0698089 9.23191 0.198838L5.22487 4.20588L1.21783 0.198838C1.08363 0.0729984 0.905747 0.00430476 0.721805 0.00729165C0.537863 0.0102785 0.362299 0.0847118 0.232261 0.214842C0.102223 0.344971 0.0279139 0.520588 0.0250571 0.704532C0.0222003 0.888476 0.0910199 1.06632 0.216954 1.20042L4.22329 5.20746L0.216246 9.21451C0.148593 9.27985 0.0946304 9.35801 0.0575074 9.44443C0.0203843 9.53085 0.000844031 9.62379 2.67446e-05 9.71785C-0.000790542 9.8119 0.0171313 9.90517 0.052747 9.99222C0.0883626 10.0793 0.140959 10.1584 0.207466 10.2249C0.273973 10.2914 0.35306 10.344 0.440112 10.3796C0.527163 10.4152 0.620436 10.4331 0.714488 10.4323C0.80854 10.4315 0.901488 10.412 0.987907 10.3748C1.07433 10.3377 1.15249 10.2837 1.21783 10.2161L5.22487 6.20905Z" fill="white"/>
</g>
</svg>
