<svg width="13" height="10" viewBox="0 0 13 10" fill="none" xmlns="http://www.w3.org/2000/svg">
<path fill-rule="evenodd" clip-rule="evenodd" d="M12.6237 0.211125C12.7117 0.286575 12.784 0.378634 12.8364 0.48204C12.8889 0.585446 12.9204 0.698173 12.9293 0.813777C12.9381 0.929381 12.9241 1.0456 12.888 1.15578C12.8519 1.26596 12.7945 1.36796 12.719 1.45593L5.6596 9.69186C5.58046 9.78419 5.48308 9.85917 5.37358 9.91209C5.26408 9.96501 5.14482 9.99472 5.02329 9.99936C4.90176 10.004 4.78059 9.98347 4.66737 9.93905C4.55416 9.89464 4.45134 9.8273 4.36539 9.74127L0.247421 5.62331C0.0867576 5.45681 -0.00208183 5.23386 3.70498e-05 5.00249C0.00215593 4.77113 0.0950635 4.54985 0.258749 4.38631C0.422435 4.22278 0.643802 4.13008 0.875172 4.12818C1.10654 4.12628 1.3294 4.21533 1.49575 4.37615L4.94072 7.81995L11.38 0.307603C11.5324 0.13016 11.7489 0.0204512 11.9821 0.00258163C12.2153 -0.015288 12.4461 0.0589664 12.6237 0.211125Z" fill="white"/>
</svg>
