<svg width="13" height="11" viewBox="0 0 13 11" fill="none" xmlns="http://www.w3.org/2000/svg">
<mask id="mask0_213_1126" style="mask-type:alpha" maskUnits="userSpaceOnUse" x="0" y="0" width="11" height="11">
<path fill-rule="evenodd" clip-rule="evenodd" d="M5.22487 6.12841L9.23191 10.0834C9.36551 10.2108 9.54443 10.2812 9.73015 10.2796C9.91588 10.278 10.0935 10.2045 10.2249 10.0749C10.3562 9.94527 10.4307 9.76992 10.4323 9.58661C10.4339 9.4033 10.3625 9.22669 10.2335 9.09484L6.22645 5.13983L10.2335 1.18483C10.3625 1.05297 10.4339 0.87637 10.4323 0.693059C10.4307 0.509749 10.3562 0.334397 10.2249 0.204772C10.0935 0.0751467 9.91588 0.00161935 9.73015 2.64291e-05C9.54443 -0.00156649 9.36551 0.0689023 9.23191 0.196255L5.22487 4.15126L1.21783 0.196255C1.08363 0.0720504 0.905747 0.00424885 0.721805 0.00719695C0.537863 0.0101451 0.362299 0.0836117 0.232261 0.212051C0.102223 0.340491 0.0279139 0.513827 0.0250571 0.695382C0.0222003 0.876937 0.0910199 1.05247 0.216954 1.18483L4.22329 5.13983L0.216246 9.09484C0.148593 9.15933 0.0946304 9.23647 0.0575074 9.32177C0.0203843 9.40707 0.000844031 9.49881 2.67446e-05 9.59164C-0.000790542 9.68447 0.0171313 9.77653 0.052747 9.86245C0.0883626 9.94837 0.140959 10.0264 0.207466 10.0921C0.273973 10.1577 0.35306 10.2096 0.440112 10.2448C0.527163 10.2799 0.620436 10.2976 0.714488 10.2968C0.80854 10.296 0.901488 10.2767 0.987907 10.2401C1.07433 10.2034 1.15249 10.1502 1.21783 10.0834L5.22487 6.12841Z" fill="black"/>
</mask>
<g mask="url(#mask0_213_1126)">
<path fill-rule="evenodd" clip-rule="evenodd" d="M5.22487 6.12841L9.23191 10.0834C9.36551 10.2108 9.54443 10.2812 9.73015 10.2796C9.91588 10.278 10.0935 10.2045 10.2249 10.0749C10.3562 9.94527 10.4307 9.76992 10.4323 9.58661C10.4339 9.4033 10.3625 9.22669 10.2335 9.09484L6.22645 5.13983L10.2335 1.18483C10.3625 1.05297 10.4339 0.87637 10.4323 0.693059C10.4307 0.509749 10.3562 0.334397 10.2249 0.204772C10.0935 0.0751467 9.91588 0.00161935 9.73015 2.64291e-05C9.54443 -0.00156649 9.36551 0.0689023 9.23191 0.196255L5.22487 4.15126L1.21783 0.196255C1.08363 0.0720504 0.905747 0.00424885 0.721805 0.00719695C0.537863 0.0101451 0.362299 0.0836117 0.232261 0.212051C0.102223 0.340491 0.0279139 0.513827 0.0250571 0.695382C0.0222003 0.876937 0.0910199 1.05247 0.216954 1.18483L4.22329 5.13983L0.216246 9.09484C0.148593 9.15933 0.0946304 9.23647 0.0575074 9.32177C0.0203843 9.40707 0.000844031 9.49881 2.67446e-05 9.59164C-0.000790542 9.68447 0.0171313 9.77653 0.052747 9.86245C0.0883626 9.94837 0.140959 10.0264 0.207466 10.0921C0.273973 10.1577 0.35306 10.2096 0.440112 10.2448C0.527163 10.2799 0.620436 10.2976 0.714488 10.2968C0.80854 10.296 0.901488 10.2767 0.987907 10.2401C1.07433 10.2034 1.15249 10.1502 1.21783 10.0834L5.22487 6.12841Z" fill="#393939"/>
</g>
</svg>
